HIERARCHY
ROOT SpineBase
{
  OFFSET 0.000000 0.000000 0.000000
  CHANNELS 6 Xposition Yposition Zposition Zrotation Xrotation Yrotation
  JOINT SpineMid
  {
    OFFSET -0.000000 31.554757 0.000000
    CHANNELS 3 Zrotation Xrotation Yrotation
    JOINT SpineShoulder
    {
      OFFSET -0.275461 23.405379 -0.877484
      CHANNELS 3 Zrotation Xrotation Yrotation
      JOINT Neck
      {
        OFFSET -0.185320 7.751689 -0.663643
        CHANNELS 3 Zrotation Xrotation Yrotation
        JOINT Head
        {
          OFFSET -1.355852 10.867156 6.219614
          CHANNELS 3 Zrotation Xrotation Yrotation
          End Site
          {
            OFFSET 0 0 0
          }
        }
      }
      JOINT ShoulderLeft
      {
        OFFSET -4.618505 -2.288838 25.306625
        CHANNELS 3 Zrotation Xrotation Yrotation
        JOINT ElbowLeft
        {
          OFFSET -9.437417 -20.560259 -21.476037
          CHANNELS 3 Zrotation Xrotation Yrotation
          JOINT WristLeft
          {
            OFFSET -8.252635 -23.775490 -1.349732
            CHANNELS 3 Zrotation Xrotation Yrotation
            JOINT HandLeft
            {
              OFFSET 5.067781 -7.884967 -1.843818
              CHANNELS 3 Zrotation Xrotation Yrotation
              JOINT HandTipLeft
              {
                OFFSET -0.003746 -0.304802 -0.300971
                CHANNELS 3 Zrotation Xrotation Yrotation
                End Site
                {
                  OFFSET 0 0 0
                }
              }
              JOINT ThumbLeft
              {
                OFFSET -0.249356 -0.103068 -0.655009
                CHANNELS 3 Zrotation Xrotation Yrotation
                End Site
                {
                  OFFSET 0 0 0
                }
              }
            }
          }
        }
      }
      JOINT ShoulderRight
      {
        OFFSET -0.202753 -4.971178 -10.650752
        CHANNELS 3 Zrotation Xrotation Yrotation
        JOINT ElbowRight
        {
          OFFSET -11.189897 -19.214475 -1.636484
          CHANNELS 3 Zrotation Xrotation Yrotation
          JOINT WristRight
          {
            OFFSET 0.225165 -18.462010 10.269923
            CHANNELS 3 Zrotation Xrotation Yrotation
            JOINT HandRight
            {
              OFFSET -0.538335 -6.408649 -5.492069
              CHANNELS 3 Zrotation Xrotation Yrotation
              JOINT HandTipRight
              {
                OFFSET -2.660610 -4.696441 3.207858
                CHANNELS 3 Zrotation Xrotation Yrotation
                End Site
                {
                  OFFSET 0 0 0
                }
              }
              JOINT ThumbRight
              {
                OFFSET -2.171229 0.573407 2.080020
                CHANNELS 3 Zrotation Xrotation Yrotation
                End Site
                {
                  OFFSET 0 0 0
                }
              }
            }
          }
        }
      }
    }
  }
  JOINT HipLeft
  {
    OFFSET -1.925543 1.955143 -2.044170
    CHANNELS 3 Zrotation Xrotation Yrotation
    JOINT KneeLeft
    {
      OFFSET 0.877263 -37.582041 -5.363338
      CHANNELS 3 Zrotation Xrotation Yrotation
      JOINT AnkleLeft
      {
        OFFSET 4.632602 -41.580658 -0.548894
        CHANNELS 3 Zrotation Xrotation Yrotation
        JOINT FootLeft
        {
          OFFSET -5.673822 -4.213217 -2.486789
          CHANNELS 3 Zrotation Xrotation Yrotation
          End Site
          {
            OFFSET 0 0 0
          }
        }
      }
    }
  }
  JOINT HipRight
  {
    OFFSET -0.181691 0.745194 -5.307494
    CHANNELS 3 Zrotation Xrotation Yrotation
    JOINT KneeRight
    {
      OFFSET 9.883214 -35.007801 3.768083
      CHANNELS 3 Zrotation Xrotation Yrotation
      JOINT AnkleRight
      {
        OFFSET 2.567892 -30.414958 1.650254
        CHANNELS 3 Zrotation Xrotation Yrotation
        JOINT FootRight
        {
          OFFSET -10.826791 -3.411650 -4.401562
          CHANNELS 3 Zrotation Xrotation Yrotation
          End Site
          {
            OFFSET 0 0 0
          }
        }
      }
    }
  }
}
MOTION
Frames: 5
Frame Time: 0.033333
78.625446 81.461630 271.988677 -0.096427 -0.193786 59.054637 0.215787 0.016947 -59.054831 -0.000000 0.000000 0.000000 -0.000000 0.000000 0.000000 0.000000 0.000000 0.000000 -0.601814 0.534722 0.383195 0.598251 -0.538705 -0.377574 -13.901110 -18.841531 -12.714472 14.950847 20.551186 2.503490 0.000000 0.000000 0.000000 0.000000 0.000000 0.000000 0.903963 -0.141346 0.006470 -2.041657 0.947556 -0.618987 1.474954 -4.264243 0.693016 5.184554 3.712042 3.310887 0.000000 0.000000 0.000000 0.000000 0.000000 0.000000 0.182415 0.827961 -58.943840 1.396456 -0.850289 -0.161093 -18.194739 6.887326 2.356919 0.000000 0.000000 0.000000 0.215787 0.016947 -59.054831 -0.988140 -0.307577 -0.082284 12.608484 -2.948792 -6.757343 0.000000 0.000000 0.000000
78.578750 81.477596 272.017789 -0.162067 -0.232919 59.197189 0.283054 -0.019932 -59.197469 -0.000000 0.000000 0.000000 0.133990 -0.810684 -0.177579 0.000000 0.000000 0.000000 -0.639350 0.390273 0.487883 0.636019 -0.395679 -0.483509 -15.437104 -20.396415 -14.179764 16.189238 22.542702 2.495506 0.000000 0.000000 0.000000 0.000000 0.000000 0.000000 -0.000000 0.000000 0.000000 -1.462251 1.378342 -0.784413 5.616292 -5.404819 -2.182903 2.350166 2.479049 8.616712 0.000000 0.000000 0.000000 0.000000 0.000000 0.000000 0.283054 -0.019932 -59.197469 -0.000000 0.000000 0.000000 -17.497118 6.469286 2.163032 0.000000 0.000000 0.000000 0.283054 -0.019932 -59.197469 -1.323939 0.184770 -0.054160 15.176854 -4.373064 -7.074538 0.000000 0.000000 0.000000
78.495557 81.512633 272.056035 -0.261706 -0.277618 59.120247 0.372581 -0.082125 -59.120614 -0.000000 0.000000 0.000000 0.124514 -0.956125 -0.190402 0.000000 0.000000 0.000000 -0.598750 0.028525 0.610851 0.598412 -0.034905 -0.610520 -18.182782 -22.950351 -16.808798 17.645762 26.086094 3.224757 0.000000 0.000000 0.000000 0.000000 0.000000 0.000000 -1.571271 -0.440349 0.381319 -0.059451 2.165534 -1.257900 8.377506 -6.247651 -4.092743 -0.368939 4.516721 10.015537 0.000000 0.000000 0.000000 0.000000 0.000000 0.000000 0.372581 -0.082125 -59.120614 -0.000000 0.000000 0.000000 -17.513392 6.477005 2.163860 0.000000 0.000000 0.000000 0.372581 -0.082125 -59.120614 -1.441475 0.737818 -0.006649 20.210960 -6.955052 -8.244599 0.000000 0.000000 0.000000
78.390762 81.568631 272.095089 -0.378873 -0.322769 58.995965 0.471811 -0.158489 -58.996379 -0.000000 0.000000 0.000000 0.103814 -1.092047 -0.195726 0.000000 0.000000 0.000000 -0.475981 -0.573264 0.760454 0.483571 0.566876 -0.765227 -22.411623 -26.373894 -20.878097 19.312671 31.237055 4.673562 0.000000 0.000000 0.000000 0.000000 0.000000 0.000000 -2.521866 -0.358447 0.410524 0.704083 2.378260 -1.388614 10.920806 -6.761028 -5.825846 -3.361819 4.630174 11.744061 0.000000 0.000000 0.000000 0.000000 0.000000 0.000000 0.471811 -0.158489 -58.996379 -0.000000 0.000000 0.000000 -17.530578 6.495355 2.154819 0.000000 0.000000 0.000000 0.471811 -0.158489 -58.996379 -1.235280 0.773977 0.006673 25.854962 -9.452433 -11.269431 0.000000 0.000000 0.000000
78.290403 81.636571 272.131324 -0.482996 -0.358246 58.769936 0.556752 -0.227268 -58.770342 -0.000000 0.000000 0.000000 0.075963 -1.238990 -0.198456 0.000000 0.000000 0.000000 -0.378496 -0.987451 0.851718 0.393189 0.981694 -0.858348 -28.449425 -30.343503 -26.720147 21.096338 37.865542 6.887783 0.000000 0.000000 0.000000 0.000000 0.000000 0.000000 -3.391312 -0.225741 0.406756 1.340516 2.583499 -1.504680 13.451628 -8.638715 -7.254455 -6.106023 5.971853 13.580175 0.000000 0.000000 0.000000 0.000000 0.000000 0.000000 0.556752 -0.227268 -58.770342 -0.000000 0.000000 0.000000 -17.543668 6.526497 2.131252 0.000000 0.000000 0.000000 0.556752 -0.227268 -58.770342 -0.851615 0.534885 0.002930 24.828110 -8.946178 -11.198412 0.000000 0.000000 0.000000
